<svg width="25" height="24" viewBox="0 0 25 24" fill="none" xmlns="http://www.w3.org/2000/svg">
<path d="M8.99531 0.113797C9.08335 0.167782 9.16014 0.239 9.2213 0.323382C9.28246 0.407764 9.32678 0.503656 9.35174 0.605582C9.37669 0.707508 9.3818 0.81347 9.36675 0.917416C9.35171 1.02136 9.31682 1.12125 9.26406 1.21139L5.28594 8.00013H19.7141L15.7344 1.21139C15.6279 1.02934 15.5964 0.811435 15.6468 0.605597C15.6972 0.399759 15.8253 0.222853 16.0031 0.113797C16.1809 0.00474045 16.3937 -0.0275326 16.5947 0.024077C16.7957 0.0756866 16.9685 0.206951 17.075 0.388994L21.5359 8.00013H24.2188C24.426 8.00013 24.6247 8.08442 24.7712 8.23444C24.9177 8.38447 25 8.58795 25 8.80013V10.4001C25 10.6123 24.9177 10.8158 24.7712 10.9658C24.6247 11.1158 24.426 11.2001 24.2188 11.2001H0.78125C0.57405 11.2001 0.375336 11.1158 0.228823 10.9658C0.08231 10.8158 0 10.6123 0 10.4001V8.80013C0 8.58795 0.08231 8.38447 0.228823 8.23444C0.375336 8.08442 0.57405 8.00013 0.78125 8.00013H3.46406L7.92188 0.388994C7.9746 0.298842 8.04414 0.220208 8.12655 0.157584C8.20895 0.0949608 8.3026 0.0495748 8.40214 0.024019C8.50168 -0.00153678 8.60515 -0.00676162 8.70667 0.00864264C8.80818 0.0240469 8.90729 0.0597785 8.99531 0.113797ZM3.85625 23.0816L1.47344 12.8001H23.5266L21.1437 23.0816C21.082 23.3434 20.9362 23.5762 20.7296 23.7428C20.523 23.9094 20.2676 24 20.0047 24H4.99531C4.73209 24.0003 4.47642 23.9099 4.2695 23.7433C4.06258 23.5767 3.91802 23.3436 3.85625 23.0816Z" fill="#F73004"/>
</svg>
