<svg width="28" height="15" viewBox="0 0 28 15" fill="none" xmlns="http://www.w3.org/2000/svg">
<path d="M0.666667 6.24927C0.489856 6.24927 0.320287 6.18342 0.195262 6.0662C0.070238 5.94898 0 5.78999 0 5.62422V0.625052C0 0.459278 0.070238 0.300294 0.195262 0.183074C0.320287 0.0658536 0.489856 0 0.666667 0H6C6.17681 0 6.34638 0.0658536 6.4714 0.183074C6.59643 0.300294 6.66667 0.459278 6.66667 0.625052V5.62422C6.66667 5.78999 6.59643 5.94898 6.4714 6.0662C6.34638 6.18342 6.17681 6.24927 6 6.24927H0.666667ZM10 6.24927C9.82319 6.24927 9.65362 6.18342 9.52859 6.0662C9.40357 5.94898 9.33333 5.78999 9.33333 5.62422V0.625052C9.33333 0.459278 9.40357 0.300294 9.52859 0.183074C9.65362 0.0658536 9.82319 0 10 0H27.3333C27.5101 0 27.6797 0.0658536 27.8047 0.183074C27.9298 0.300294 28 0.459278 28 0.625052V5.62422C28 5.78999 27.9298 5.94898 27.8047 6.0662C27.6797 6.18342 27.5101 6.24927 27.3333 6.24927H10ZM0.666667 15C0.489856 15 0.320287 14.9341 0.195262 14.8169C0.070238 14.6997 0 14.5407 0 14.3749V9.37453C0 9.20876 0.070238 9.04977 0.195262 8.93255C0.320287 8.81533 0.489856 8.74948 0.666667 8.74948H6C6.17681 8.74948 6.34638 8.81533 6.4714 8.93255C6.59643 9.04977 6.66667 9.20876 6.66667 9.37453V14.3749C6.66667 14.5407 6.59643 14.6997 6.4714 14.8169C6.34638 14.9341 6.17681 15 6 15H0.666667ZM10 15C9.82319 15 9.65362 14.9341 9.52859 14.8169C9.40357 14.6997 9.33333 14.5407 9.33333 14.3749V9.37453C9.33333 9.20876 9.40357 9.04977 9.52859 8.93255C9.65362 8.81533 9.82319 8.74948 10 8.74948H27.3333C27.5101 8.74948 27.6797 8.81533 27.8047 8.93255C27.9298 9.04977 28 9.20876 28 9.37453V14.3749C28 14.5407 27.9298 14.6997 27.8047 14.8169C27.6797 14.9341 27.5101 15 27.3333 15H10Z" fill="#EFEFEF"/>
</svg>
