<svg width="30" height="27" viewBox="0 0 30 27" fill="none" xmlns="http://www.w3.org/2000/svg">
<mask id="mask0_292_6" style="mask-type:alpha" maskUnits="userSpaceOnUse" x="0" y="0" width="30" height="27">
<path d="M21.0498 1.24414C24.8392 1.24423 27.7899 4.17904 27.79 7.95605C27.79 10.2723 26.7527 12.4793 24.6699 15.0186C22.5734 17.5745 19.5507 20.3129 15.7881 23.7129L15.7861 23.7139L14.5166 24.8652L13.248 23.7139L13.2461 23.7129L10.5664 21.2793C8.03052 18.955 5.93669 16.9356 4.36426 15.0186C2.28141 12.4792 1.24414 10.2723 1.24414 7.95605C1.24431 4.17898 4.19486 1.24414 7.98438 1.24414C10.1358 1.24415 12.2201 2.24907 13.5742 3.82129L14.5166 4.91602L15.46 3.82129C16.8141 2.24906 18.8984 1.24414 21.0498 1.24414Z" fill="white" stroke="#0080E5" stroke-width="2.48863"/>
</mask>
<g mask="url(#mask0_292_6)">
<path d="M21.0498 1.24414C24.8392 1.24423 27.7899 4.17904 27.79 7.95605C27.79 10.2723 26.7527 12.4793 24.6699 15.0186C22.5734 17.5745 19.5507 20.3129 15.7881 23.7129L15.7861 23.7139L14.5166 24.8652L13.248 23.7139L13.2461 23.7129L10.5664 21.2793C8.03052 18.955 5.93669 16.9356 4.36426 15.0186C2.28141 12.4792 1.24414 10.2723 1.24414 7.95605C1.24431 4.17898 4.19486 1.24414 7.98438 1.24414C10.1358 1.24415 12.2201 2.24907 13.5742 3.82129L14.5166 4.91602L15.46 3.82129C16.8141 2.24906 18.8984 1.24414 21.0498 1.24414Z" fill="#0080E5" stroke="#0080E5" stroke-width="2.48863"/>
</g>
</svg>
