<svg width="25" height="23" viewBox="0 0 25 23" fill="none" xmlns="http://www.w3.org/2000/svg">
<path d="M2.5 23C1.8125 23 1.22417 22.7631 0.735 22.2894C0.245833 21.8157 0.000833333 21.2455 0 20.5789V15.7368H8.75V18.1579H16.25V15.7368H25V20.5789C25 21.2447 24.7554 21.8149 24.2662 22.2894C23.7771 22.7639 23.1883 23.0008 22.5 23H2.5ZM11.25 15.7368V13.3158H13.75V15.7368H11.25ZM0 13.3158V7.26316C0 6.59737 0.245 6.02761 0.735 5.55389C1.225 5.08017 1.81333 4.84291 2.5 4.8421H7.5V2.42105C7.5 1.75526 7.745 1.18551 8.235 0.711789C8.725 0.23807 9.31333 0.000807017 10 0H15C15.6875 0 16.2762 0.237263 16.7662 0.711789C17.2562 1.18632 17.5008 1.75607 17.5 2.42105V4.8421H22.5C23.1875 4.8421 23.7762 5.07937 24.2662 5.55389C24.7562 6.02842 25.0008 6.59818 25 7.26316V13.3158H16.25V10.8947H8.75V13.3158H0ZM10 4.8421H15V2.42105H10V4.8421Z" fill="black"/>
</svg>
