<svg width="64" height="64" viewBox="0 0 64 64" fill="none" xmlns="http://www.w3.org/2000/svg">
<rect x="0.5" y="0.5" width="63" height="63" rx="14.5" stroke="black"/>
<path d="M16.8887 39.833H47.1113C47.5247 39.8331 47.846 39.9643 48.1094 40.2197C48.3719 40.4745 48.5009 40.7787 48.5 41.165C48.4991 41.5529 48.3692 41.8594 48.1064 42.1162C47.845 42.3717 47.5256 42.5019 47.1133 42.5H16.8887C16.4752 42.5 16.1545 42.3693 15.8926 42.1143C15.6304 41.8589 15.5009 41.5529 15.5 41.165C15.4992 40.7793 15.628 40.4756 15.8916 40.2207C16.157 39.964 16.4784 39.8331 16.8887 39.833ZM16.8887 30.667H47.1113C47.5248 30.667 47.846 30.7981 48.1094 31.0537C48.372 31.3086 48.5009 31.6125 48.5 31.999C48.499 32.3867 48.369 32.6925 48.1064 32.9492C47.845 33.2047 47.5256 33.3349 47.1133 33.333H16.8887C16.4752 33.333 16.1545 33.2024 15.8926 32.9473C15.6305 32.692 15.501 32.3867 15.5 31.999C15.4991 31.6131 15.6279 31.3087 15.8916 31.0537C16.157 30.7971 16.4784 30.667 16.8887 30.667ZM16.8887 21.5H47.1113C47.5248 21.5 47.846 21.6312 48.1094 21.8867C48.372 22.1416 48.5009 22.4456 48.5 22.832C48.4991 23.2199 48.3692 23.5264 48.1064 23.7832C47.845 24.0386 47.5256 24.1689 47.1133 24.167H16.8887C16.4752 24.1669 16.1545 24.0354 15.8926 23.7803C15.6306 23.525 15.5009 23.2198 15.5 22.832C15.4991 22.4462 15.6281 22.1427 15.8916 21.8877C16.157 21.631 16.4784 21.5 16.8887 21.5Z" fill="black" stroke="black"/>
</svg>
