<svg width="24" height="24" viewBox="0 0 24 24" fill="none" xmlns="http://www.w3.org/2000/svg">
<path d="M22.443 23.8333C19.6845 23.8333 16.9538 23.2374 14.251 22.0458C11.5481 20.8541 9.09284 19.1549 6.88517 16.9481C4.6775 14.7413 2.97828 12.2918 1.7875 9.59951C0.596714 6.90724 0.000882714 4.17082 0 1.39027V0H7.81202L9.03678 6.65346L5.26318 10.4602C5.74867 11.3208 6.28934 12.1373 6.88517 12.9097C7.481 13.6821 8.12097 14.3993 8.80507 15.0613C9.44504 15.7013 10.1459 16.3139 10.9077 16.8991C11.6695 17.4844 12.4913 18.0303 13.3731 18.537L17.2129 14.6972L23.8333 16.0544V23.8333H22.443Z" fill="#EFEFEF"/>
</svg>
