<svg width="28" height="26" viewBox="0 0 28 26" fill="none" xmlns="http://www.w3.org/2000/svg">
<path d="M13.5866 25.1604L11.6166 23.3505C4.61945 16.9473 0 12.7105 0 7.54127C0 3.30445 3.28796 0 7.47264 0C9.83671 0 12.1057 1.11062 13.5866 2.85197C15.0676 1.11062 17.3365 0 19.7006 0C23.8853 0 27.1732 3.30445 27.1732 7.54127C27.1732 12.7105 22.5538 16.9473 15.5567 23.3505L13.5866 25.1604Z" fill="#EFEFEF"/>
<path d="M19.7002 0.50293C23.6031 0.50293 26.6698 3.57849 26.6699 7.54102C26.6699 9.96163 25.5926 12.2029 23.5977 14.666C21.597 17.1361 18.7252 19.7689 15.2168 22.9795H15.2158L13.5859 24.4766L11.957 22.9795H11.9561C8.44768 19.7689 5.57584 17.1361 3.5752 14.666C1.5804 12.203 0.50293 9.96157 0.50293 7.54102C0.503059 3.57849 3.5697 0.50293 7.47266 0.50293C9.68278 0.502935 11.8137 1.54408 13.2031 3.17773L13.5869 3.62891L13.9697 3.17773C15.3591 1.54407 17.4901 0.503055 19.7002 0.50293Z" stroke="black" stroke-opacity="0.3" stroke-width="1.00642"/>
</svg>
