<svg width="34" height="38" viewBox="0 0 34 38" fill="none" xmlns="http://www.w3.org/2000/svg">
<path d="M10.625 4.22624C10.0614 4.22624 9.52091 4.4486 9.1224 4.84441C8.72388 5.24021 8.5 5.77703 8.5 6.33678C8.5 6.89653 8.72388 7.43335 9.1224 7.82915C9.52091 8.22496 10.0614 8.44732 10.625 8.44732C11.1886 8.44732 11.7291 8.22496 12.1276 7.82915C12.5261 7.43335 12.75 6.89653 12.75 6.33678C12.75 5.77703 12.5261 5.24021 12.1276 4.84441C11.7291 4.4486 11.1886 4.22624 10.625 4.22624ZM4.61125 4.22624C5.05028 2.99046 5.86445 1.92034 6.94152 1.16341C8.0186 0.40648 9.30556 0 10.625 0C11.9444 0 13.2314 0.40648 14.3085 1.16341C15.3856 1.92034 16.1997 2.99046 16.6388 4.22624H31.875C32.4386 4.22624 32.9791 4.4486 33.3776 4.84441C33.7761 5.24021 34 5.77703 34 6.33678C34 6.89653 33.7761 7.43335 33.3776 7.82915C32.9791 8.22496 32.4386 8.44732 31.875 8.44732H16.6388C16.1997 9.68311 15.3856 10.7532 14.3085 11.5102C13.2314 12.2671 11.9444 12.6736 10.625 12.6736C9.30556 12.6736 8.0186 12.2671 6.94152 11.5102C5.86445 10.7532 5.05028 9.68311 4.61125 8.44732H2.125C1.56141 8.44732 1.02091 8.22496 0.622398 7.82915C0.223884 7.43335 0 6.89653 0 6.33678C0 5.77703 0.223884 5.24021 0.622398 4.84441C1.02091 4.4486 1.56141 4.22624 2.125 4.22624H4.61125ZM23.375 16.8895C22.8114 16.8895 22.2709 17.1118 21.8724 17.5076C21.4739 17.9034 21.25 18.4403 21.25 19C21.25 19.5597 21.4739 20.0966 21.8724 20.4924C22.2709 20.8882 22.8114 21.1105 23.375 21.1105C23.9386 21.1105 24.4791 20.8882 24.8776 20.4924C25.2761 20.0966 25.5 19.5597 25.5 19C25.5 18.4403 25.2761 17.9034 24.8776 17.5076C24.4791 17.1118 23.9386 16.8895 23.375 16.8895ZM17.3612 16.8895C17.8003 15.6537 18.6144 14.5836 19.6915 13.8266C20.7686 13.0697 22.0556 12.6632 23.375 12.6632C24.6944 12.6632 25.9814 13.0697 27.0585 13.8266C28.1356 14.5836 28.9497 15.6537 29.3888 16.8895H31.875C32.4386 16.8895 32.9791 17.1118 33.3776 17.5076C33.7761 17.9034 34 18.4403 34 19C34 19.5597 33.7761 20.0966 33.3776 20.4924C32.9791 20.8882 32.4386 21.1105 31.875 21.1105H29.3888C28.9497 22.3463 28.1356 23.4164 27.0585 24.1734C25.9814 24.9303 24.6944 25.3368 23.375 25.3368C22.0556 25.3368 20.7686 24.9303 19.6915 24.1734C18.6144 23.4164 17.8003 22.3463 17.3612 21.1105H2.125C1.56141 21.1105 1.02091 20.8882 0.622398 20.4924C0.223884 20.0966 0 19.5597 0 19C0 18.4403 0.223884 17.9034 0.622398 17.5076C1.02091 17.1118 1.56141 16.8895 2.125 16.8895H17.3612ZM10.625 29.5527C10.0614 29.5527 9.52091 29.775 9.1224 30.1708C8.72388 30.5666 8.5 31.1035 8.5 31.6632C8.5 32.223 8.72388 32.7598 9.1224 33.1556C9.52091 33.5514 10.0614 33.7738 10.625 33.7738C11.1886 33.7738 11.7291 33.5514 12.1276 33.1556C12.5261 32.7598 12.75 32.223 12.75 31.6632C12.75 31.1035 12.5261 30.5666 12.1276 30.1708C11.7291 29.775 11.1886 29.5527 10.625 29.5527ZM4.61125 29.5527C5.05028 28.3169 5.86445 27.2468 6.94152 26.4898C8.0186 25.7329 9.30556 25.3264 10.625 25.3264C11.9444 25.3264 13.2314 25.7329 14.3085 26.4898C15.3856 27.2468 16.1997 28.3169 16.6388 29.5527H31.875C32.4386 29.5527 32.9791 29.775 33.3776 30.1708C33.7761 30.5666 34 31.1035 34 31.6632C34 32.223 33.7761 32.7598 33.3776 33.1556C32.9791 33.5514 32.4386 33.7738 31.875 33.7738H16.6388C16.1997 35.0095 15.3856 36.0797 14.3085 36.8366C13.2314 37.5935 11.9444 38 10.625 38C9.30556 38 8.0186 37.5935 6.94152 36.8366C5.86445 36.0797 5.05028 35.0095 4.61125 33.7738H2.125C1.56141 33.7738 1.02091 33.5514 0.622398 33.1556C0.223884 32.7598 0 32.223 0 31.6632C0 31.1035 0.223884 30.5666 0.622398 30.1708C1.02091 29.775 1.56141 29.5527 2.125 29.5527H4.61125Z" fill="white"/>
</svg>
