<svg width="27" height="29" viewBox="0 0 27 29" fill="none" xmlns="http://www.w3.org/2000/svg">
<path d="M11.9622 1.3588C12.3096 1.35964 12.6569 1.37599 13.0029 1.40778C12.1411 2.96196 11.8012 4.7627 12.0353 6.53372C12.2694 8.30473 13.0647 9.94818 14.299 11.2119C15.5333 12.4756 17.1386 13.2898 18.8684 13.5295C20.5983 13.7692 22.3572 13.4212 23.8752 12.5388C24.1491 15.6727 23.229 18.7937 21.3073 21.2491L27 27.0759L25.1193 29L19.4279 23.1732C17.3103 24.9112 14.6763 25.8565 11.9622 25.8526C5.35906 25.8526 0 20.366 0 13.6057C0 6.8454 5.35906 1.3588 11.9622 1.3588ZM19.3123 0.433477C19.3621 0.305545 19.4483 0.195854 19.5597 0.11858C19.671 0.0413059 19.8025 0 19.937 0C20.0715 0 20.203 0.0413059 20.3143 0.11858C20.4257 0.195854 20.5118 0.305545 20.5617 0.433477L20.8993 1.26354C21.4635 2.67204 22.5338 3.80536 23.8898 4.43004L24.8441 4.86413C24.9665 4.92176 25.0702 5.01412 25.1429 5.13025C25.2156 5.24638 25.2542 5.38141 25.2542 5.51933C25.2542 5.65726 25.2156 5.79229 25.1429 5.90842C25.0702 6.02454 24.9665 6.1169 24.8441 6.17454L23.834 6.63448C22.512 7.24183 21.4602 8.33418 20.886 9.6962L20.5577 10.4664C20.5066 10.5918 20.4204 10.6989 20.3099 10.7743C20.1995 10.8497 20.0697 10.8899 19.937 10.8899C19.8043 10.8899 19.6745 10.8497 19.564 10.7743C19.4536 10.6989 19.3674 10.5918 19.3163 10.4664L18.9893 9.69756C18.4147 8.33455 17.3619 7.2416 16.0386 6.63448L15.0285 6.17454C14.9061 6.1169 14.8024 6.02454 14.7298 5.90842C14.6571 5.79229 14.6185 5.65726 14.6185 5.51933C14.6185 5.38141 14.6571 5.24638 14.7298 5.13025C14.8024 5.01412 14.9061 4.92176 15.0285 4.86413L15.9828 4.42868C17.3391 3.80461 18.4099 2.67177 18.9747 1.26354L19.3123 0.433477Z" fill="#A9A9A9"/>
</svg>
