<svg width="23" height="30" viewBox="0 0 23 30" fill="none" xmlns="http://www.w3.org/2000/svg">
<path d="M20.8149 13.6671C20.4371 13.167 19.9772 12.7337 19.5501 12.3004C18.4496 11.3003 17.2013 10.5836 16.15 9.53361C13.7026 7.1002 13.1606 3.08342 14.721 0C13.1606 0.383344 11.7973 1.25004 10.631 2.20006C6.37683 5.66683 4.70142 11.7837 6.70534 17.0338C6.77104 17.2005 6.83674 17.3672 6.83674 17.5838C6.83674 17.9505 6.59036 18.2839 6.26185 18.4172C5.88406 18.5839 5.48985 18.4839 5.17776 18.2172C5.08454 18.1379 5.00657 18.0419 4.9478 17.9338C3.09171 15.5504 2.79605 12.1337 4.04439 9.40027C1.30133 11.667 -0.1934 15.5004 0.0201324 19.1172C0.118686 19.9506 0.217239 20.7839 0.496474 21.6173C0.726432 22.6173 1.16992 23.6173 1.66269 24.5007C3.43665 27.3841 6.50823 29.4508 9.80977 29.8675C13.3248 30.3175 17.0863 29.6675 19.7801 27.2008C22.786 24.434 23.8372 20.0006 22.2932 16.2005L22.0797 15.7671C21.7347 15.0004 20.8149 13.6671 20.8149 13.6671ZM15.6244 24.1674C15.1645 24.5674 14.4089 25.0007 13.8176 25.1674C11.9779 25.8341 10.1383 24.9007 9.05419 23.8007C11.0088 23.334 12.175 21.8673 12.52 20.3839C12.7992 19.0505 12.2736 17.9505 12.0601 16.6671C11.863 15.4338 11.8958 14.3837 12.3393 13.2337C12.6514 13.8671 12.9799 14.5004 13.3741 15.0004C14.6389 16.6671 16.6264 17.4005 17.0534 19.6672C17.1191 19.9006 17.152 20.1339 17.152 20.3839C17.2013 21.7506 16.61 23.2507 15.6244 24.1674Z" fill="#A9A9A9"/>
</svg>
