<svg width="17" height="17" viewBox="0 0 17 17" fill="none" xmlns="http://www.w3.org/2000/svg">
<path d="M0.708392 7.08251C0.520515 7.08251 0.340333 7.00787 0.207483 6.87502C0.0746341 6.74217 0 6.56199 0 6.37411V0.708392C0 0.520515 0.0746341 0.340333 0.207483 0.207483C0.340333 0.0746341 0.520515 0 0.708392 0H6.37553C6.56341 0 6.74359 0.0746341 6.87644 0.207483C7.00929 0.340333 7.08392 0.520515 7.08392 0.708392V6.37411C7.08392 6.56199 7.00929 6.74217 6.87644 6.87502C6.74359 7.00787 6.56341 7.08251 6.37553 7.08251H0.708392ZM10.6259 7.08251C10.438 7.08251 10.2578 7.00787 10.125 6.87502C9.99213 6.74217 9.91749 6.56199 9.91749 6.37411V0.708392C9.91749 0.520515 9.99213 0.340333 10.125 0.207483C10.2578 0.0746341 10.438 0 10.6259 0H16.2916C16.4795 0 16.6597 0.0746341 16.7925 0.207483C16.9254 0.340333 17 0.520515 17 0.708392V6.37411C17 6.56199 16.9254 6.74217 16.7925 6.87502C16.6597 7.00787 16.4795 7.08251 16.2916 7.08251H10.6259ZM0.708392 17C0.520515 17 0.340333 16.9254 0.207483 16.7925C0.0746341 16.6597 0 16.4795 0 16.2916V10.6245C0 10.4366 0.0746341 10.2564 0.207483 10.1236C0.340333 9.99071 0.520515 9.91608 0.708392 9.91608H6.37553C6.56341 9.91608 6.74359 9.99071 6.87644 10.1236C7.00929 10.2564 7.08392 10.4366 7.08392 10.6245V16.2916C7.08392 16.4795 7.00929 16.6597 6.87644 16.7925C6.74359 16.9254 6.56341 17 6.37553 17H0.708392ZM10.6259 17C10.438 17 10.2578 16.9254 10.125 16.7925C9.99213 16.6597 9.91749 16.4795 9.91749 16.2916V10.6245C9.91749 10.4366 9.99213 10.2564 10.125 10.1236C10.2578 9.99071 10.438 9.91608 10.6259 9.91608H16.2916C16.4795 9.91608 16.6597 9.99071 16.7925 10.1236C16.9254 10.2564 17 10.4366 17 10.6245V16.2916C17 16.4795 16.9254 16.6597 16.7925 16.7925C16.6597 16.9254 16.4795 17 16.2916 17H10.6259Z" fill="#868686"/>
</svg>
