<svg width="26" height="26" viewBox="0 0 26 26" fill="none" xmlns="http://www.w3.org/2000/svg">
<path d="M18.1376 16.2165L17.4803 16.8901C17.4803 16.8901 15.916 18.4901 11.6477 14.1214C7.37941 9.75281 8.94373 8.15286 8.94373 8.15286L9.35684 7.7276C10.3781 6.68377 10.4748 5.0065 9.58362 3.78126L7.76363 1.27874C6.66008 -0.237941 4.52954 -0.438678 3.26566 0.85496L0.997897 3.17459C0.372456 3.81695 -0.0464299 4.64666 0.0041253 5.56856C0.134124 7.92833 1.17123 13.0033 6.95475 18.9243C13.0893 25.2021 18.8453 25.4519 21.1983 25.2259C21.9436 25.1545 22.5908 24.765 23.1122 24.2297L25.1633 22.1301C26.5499 20.713 26.16 18.2819 24.3862 17.2901L21.6273 15.7452C20.4631 15.0954 19.0476 15.2857 18.1376 16.2165Z" fill="#EFEFEF"/>
</svg>
