<svg width="29" height="26" viewBox="0 0 29 26" fill="none" xmlns="http://www.w3.org/2000/svg">
<path d="M14.5 20.9444C16.3125 20.9444 17.8534 20.3127 19.1226 19.0493C20.3918 17.7859 21.026 16.251 21.025 14.4444C21.024 12.6379 20.3899 11.1034 19.1226 9.841C17.8553 8.57855 16.3144 7.94637 14.5 7.94444C12.6856 7.94252 11.1452 8.5747 9.87885 9.841C8.61252 11.1073 7.9779 12.6418 7.975 14.4444C7.9721 16.2471 8.60672 17.7821 9.87885 19.0493C11.151 20.3166 12.6914 20.9483 14.5 20.9444ZM14.5 18.0556C13.485 18.0556 12.6271 17.7065 11.9262 17.0083C11.2254 16.3102 10.875 15.4556 10.875 14.4444C10.875 13.4333 11.2254 12.5787 11.9262 11.8806C12.6271 11.1824 13.485 10.8333 14.5 10.8333C15.515 10.8333 16.3729 11.1824 17.0737 11.8806C17.7746 12.5787 18.125 13.4333 18.125 14.4444C18.125 15.4556 17.7746 16.3102 17.0737 17.0083C16.3729 17.7065 15.515 18.0556 14.5 18.0556ZM2.9 26C2.1025 26 1.42003 25.7174 0.8526 25.1521C0.285167 24.5868 0.000966667 23.9065 0 23.1111V5.77778C0 4.98333 0.2842 4.30348 0.8526 3.73822C1.421 3.17296 2.10347 2.88985 2.9 2.88889H7.4675L10.15 0H18.85L21.5325 2.88889H26.1C26.8975 2.88889 27.5804 3.172 28.1488 3.73822C28.7172 4.30444 29.001 4.9843 29 5.77778V23.1111C29 23.9056 28.7163 24.5859 28.1488 25.1521C27.5814 25.7183 26.8985 26.001 26.1 26H2.9Z" fill="#333338" fill-opacity="0.3"/>
</svg>
