<svg width="21" height="20" viewBox="0 0 21 20" fill="none" xmlns="http://www.w3.org/2000/svg">
<path d="M7.24242 0.090667C7.31331 0.13368 7.37513 0.190422 7.42437 0.257653C7.47361 0.324884 7.5093 0.401286 7.52939 0.482495C7.54948 0.563704 7.55359 0.648129 7.54148 0.730948C7.52937 0.813766 7.50127 0.893355 7.4588 0.965168L4.25588 6.37407H15.8724L12.6683 0.965168C12.5825 0.820126 12.5571 0.646508 12.5977 0.482507C12.6383 0.318506 12.7415 0.177557 12.8846 0.090667C13.0278 0.00377694 13.1991 -0.0219365 13.361 0.0191832C13.5228 0.060303 13.6619 0.164888 13.7476 0.30993L17.3393 6.37407H19.4993C19.6661 6.37407 19.8261 6.44123 19.9441 6.56076C20.0621 6.6803 20.1283 6.84242 20.1283 7.01147V8.28625C20.1283 8.4553 20.0621 8.61742 19.9441 8.73695C19.8261 8.85649 19.6661 8.92364 19.4993 8.92364H0.62901C0.462186 8.92364 0.302195 8.85649 0.184233 8.73695C0.0662705 8.61742 0 8.4553 0 8.28625V7.01147C0 6.84242 0.0662705 6.6803 0.184233 6.56076C0.302195 6.44123 0.462186 6.37407 0.62901 6.37407H2.78903L6.37816 0.30993C6.42061 0.238101 6.47661 0.17545 6.54295 0.125555C6.6093 0.0756596 6.6847 0.0394985 6.76484 0.019137C6.84498 -0.00122442 6.92829 -0.0053873 7.01002 0.00688599C7.09175 0.0191593 7.17155 0.0476283 7.24242 0.090667ZM3.10479 18.3902L1.18631 10.1984H18.942L17.0235 18.3902C16.9738 18.5987 16.8564 18.7843 16.69 18.917C16.5237 19.0497 16.3181 19.1219 16.1064 19.1219H4.02189C3.80996 19.1222 3.60411 19.0501 3.43751 18.9174C3.27091 18.7847 3.15453 18.5989 3.10479 18.3902Z" fill="white"/>
</svg>
