<svg width="32" height="32" viewBox="0 0 32 32" fill="none" xmlns="http://www.w3.org/2000/svg">
<path d="M28.8841 16.7649C28.6275 16.4779 28.486 16.109 28.486 15.7271C28.486 15.3451 28.6275 14.9762 28.8841 14.6892L30.9332 12.4248C31.159 12.1774 31.2992 11.8661 31.3337 11.5356C31.3682 11.2051 31.2952 10.8723 31.1253 10.585L27.9237 5.14419C27.7554 4.85724 27.4993 4.62979 27.1917 4.49425C26.8841 4.35872 26.5408 4.32202 26.2108 4.38939L23.2013 4.98694C22.8183 5.06466 22.4197 5.00201 22.0805 4.81082C21.7414 4.61962 21.4852 4.3131 21.3603 3.94909L20.3838 1.07143C20.2765 0.759103 20.0718 0.487826 19.799 0.295946C19.5261 0.104066 19.1987 0.00128755 18.8631 0.00213852H12.4598C12.1107 -0.0157596 11.7653 0.0790748 11.4762 0.272157C11.1872 0.46524 10.9704 0.745957 10.859 1.07143L9.96257 3.94909C9.8377 4.3131 9.58153 4.61962 9.24238 4.81082C8.90324 5.00201 8.50457 5.06466 8.12163 4.98694L5.03207 4.38939C4.71919 4.34596 4.40023 4.39446 4.11536 4.52877C3.83049 4.66309 3.59246 4.87722 3.43126 5.14419L0.229638 10.585C0.0554057 10.8691 -0.0229347 11.2 0.00581662 11.5304C0.0345679 11.8609 0.168939 12.1739 0.389719 12.4248L2.42275 14.6892C2.67939 14.9762 2.82092 15.3451 2.82092 15.7271C2.82092 16.109 2.67939 16.4779 2.42275 16.7649L0.389719 19.0293C0.168939 19.2802 0.0345679 19.5932 0.00581662 19.9237C-0.0229347 20.2541 0.0554057 20.585 0.229638 20.8691L3.43126 26.3099C3.5995 26.5969 3.85566 26.8243 4.16323 26.9599C4.4708 27.0954 4.81408 27.1321 5.14413 27.0647L8.15365 26.4672C8.53659 26.3894 8.93525 26.4521 9.2744 26.6433C9.61354 26.8345 9.86972 27.141 9.99458 27.505L10.9711 30.3827C11.0825 30.7081 11.2992 30.9889 11.5883 31.1819C11.8774 31.375 12.2228 31.4699 12.5719 31.452H18.9751C19.3107 31.4528 19.6381 31.35 19.911 31.1582C20.1839 30.9663 20.3885 30.695 20.4959 30.3827L21.4724 27.505C21.5973 27.141 21.8534 26.8345 22.1926 26.6433C22.5317 26.4521 22.9304 26.3894 23.3133 26.4672L26.3228 27.0647C26.6529 27.1321 26.9962 27.0954 27.3037 26.9599C27.6113 26.8243 27.8675 26.5969 28.0357 26.3099L31.2373 20.8691C31.4073 20.5818 31.4803 20.249 31.4457 19.9185C31.4112 19.588 31.271 19.2767 31.0452 19.0293L28.8841 16.7649ZM26.4989 18.872L27.7796 20.2873L25.7306 23.7782L23.8416 23.4008C22.6887 23.1693 21.4893 23.3617 20.4712 23.9414C19.4532 24.5212 18.6872 25.4479 18.3188 26.5458L17.7105 28.307H13.6124L13.0361 26.5143C12.6677 25.4165 11.9018 24.4897 10.8837 23.91C9.8656 23.3302 8.66626 23.1379 7.51333 23.3694L5.62437 23.7468L3.54332 20.2716L4.82396 18.8563C5.61149 17.9914 6.04687 16.8717 6.04687 15.7113C6.04687 14.5509 5.61149 13.4312 4.82396 12.5663L3.54332 11.1511L5.59235 7.69162L7.48131 8.06902C8.63425 8.30052 9.83358 8.10814 10.8517 7.52839C11.8697 6.94865 12.6357 6.02188 13.0041 4.92404L13.6124 3.14712H17.7105L18.3188 4.93976C18.6872 6.03761 19.4532 6.96437 20.4712 7.54412C21.4893 8.12387 22.6887 8.31625 23.8416 8.08474L25.7306 7.70735L27.7796 11.1983L26.4989 12.6135C25.7203 13.4764 25.2903 14.5896 25.2903 15.7428C25.2903 16.8959 25.7203 18.0091 26.4989 18.872ZM15.6615 9.43709C14.395 9.43709 13.157 9.80599 12.104 10.4971C11.051 11.1883 10.2303 12.1706 9.74563 13.32C9.26098 14.4693 9.13417 15.734 9.38125 16.9542C9.62832 18.1743 10.2382 19.2951 11.1337 20.1747C12.0292 21.0544 13.1701 21.6535 14.4122 21.8962C15.6543 22.1389 16.9418 22.0143 18.1119 21.5382C19.2819 21.0621 20.282 20.2559 20.9856 19.2216C21.6891 18.1872 22.0647 16.9711 22.0647 15.7271C22.0647 14.0588 21.3901 12.459 20.1892 11.2794C18.9884 10.0998 17.3597 9.43709 15.6615 9.43709ZM15.6615 18.872C15.0282 18.872 14.4092 18.6876 13.8827 18.342C13.3562 17.9964 12.9459 17.5053 12.7035 16.9306C12.4612 16.3559 12.3978 15.7236 12.5213 15.1135C12.6449 14.5034 12.9498 13.943 13.3976 13.5032C13.8453 13.0634 14.4158 12.7638 15.0368 12.6425C15.6579 12.5211 16.3016 12.5834 16.8867 12.8215C17.4717 13.0595 17.9717 13.4626 18.3235 13.9798C18.6753 14.497 18.8631 15.105 18.8631 15.7271C18.8631 16.5612 18.5258 17.3611 17.9253 17.9509C17.3249 18.5407 16.5106 18.872 15.6615 18.872Z" fill="#1E1E1E"/>
</svg>
