<svg width="21" height="21" viewBox="0 0 21 21" fill="none" xmlns="http://www.w3.org/2000/svg">
<path d="M19.7675 0H1.15049C0.845362 0 0.55273 0.117033 0.336971 0.325352C0.121212 0.533671 0 0.816212 0 1.11082V19.0859C0 19.3805 0.121212 19.6631 0.336971 19.8714C0.55273 20.0797 0.845362 20.1967 1.15049 20.1967H11.1702V12.3705H8.45089V9.34098H11.1702V7.06885C11.1139 6.53541 11.1791 5.99653 11.3613 5.49001C11.5435 4.98349 11.8383 4.52159 12.225 4.1367C12.6117 3.75182 13.0809 3.45328 13.5997 3.26201C14.1185 3.07074 14.6744 2.99139 15.2283 3.02951C16.0424 3.02467 16.856 3.06513 17.6653 3.15069V5.87725H16.0023C14.6845 5.87725 14.4334 6.48315 14.4334 7.3617V9.31069H17.5711L17.1632 12.3402H14.4334V20.1967H19.7675C19.9186 20.1967 20.0682 20.168 20.2078 20.1122C20.3474 20.0563 20.4742 19.9745 20.5811 19.8714C20.6879 19.7682 20.7726 19.6458 20.8305 19.511C20.8883 19.3762 20.918 19.2318 20.918 19.0859V1.11082C20.918 0.964945 20.8883 0.820498 20.8305 0.685727C20.7726 0.550957 20.6879 0.428501 20.5811 0.325352C20.4742 0.222203 20.3474 0.14038 20.2078 0.0845562C20.0682 0.0287323 19.9186 0 19.7675 0Z" fill="#D9D9D9"/>
</svg>
