<svg width="27" height="27" viewBox="0 0 27 27" fill="none" xmlns="http://www.w3.org/2000/svg">
<path d="M22.5092 3.85312C21.2951 2.62717 19.8492 1.65512 18.2556 0.993604C16.6621 0.332093 14.9528 -0.00564474 13.2275 7.1361e-05C5.99804 7.1361e-05 0.105926 5.89219 0.105926 13.1216C0.105926 15.4387 0.714998 17.6897 1.8537 19.6758L0 26.4815L6.95137 24.6543C8.87128 25.7003 11.0295 26.2564 13.2275 26.2564C20.4569 26.2564 26.349 20.3643 26.349 13.1349C26.349 9.62607 24.9852 6.32913 22.5092 3.85312ZM13.2275 24.032C11.2678 24.032 9.34794 23.5023 7.66637 22.5093L7.26915 22.2709L3.13805 23.3567L4.23703 19.3315L3.97221 18.921C2.88323 17.1826 2.30511 15.173 2.30388 13.1216C2.30388 7.11033 7.20295 2.21127 13.2142 2.21127C16.1272 2.21127 18.868 3.34997 20.9203 5.41552C21.9367 6.42693 22.7421 7.63009 23.2899 8.9552C23.8377 10.2803 24.1169 11.701 24.1113 13.1349C24.1378 19.1461 19.2388 24.032 13.2275 24.032ZM19.2123 15.8757C18.8813 15.7168 17.2659 14.9224 16.9746 14.8032C16.6701 14.6973 16.4582 14.6443 16.2331 14.9621C16.008 15.2931 15.3857 16.0346 15.2003 16.2464C15.015 16.4715 14.8164 16.498 14.4853 16.3259C14.1543 16.167 13.0951 15.8095 11.8504 14.6973C10.8706 13.8234 10.2218 12.7509 10.0232 12.4199C9.83785 12.0888 9.99674 11.9167 10.1689 11.7446C10.3145 11.5989 10.4999 11.3606 10.6588 11.1752C10.8177 10.9899 10.8839 10.8442 10.9898 10.6324C11.0957 10.4073 11.0428 10.2219 10.9633 10.063C10.8839 9.90412 10.2218 8.28875 9.95701 7.62672C9.6922 6.99117 9.41415 7.07061 9.21553 7.05737H8.57998C8.35489 7.05737 8.01063 7.13681 7.70609 7.46783C7.4148 7.79885 6.56739 8.59329 6.56739 10.2087C6.56739 11.824 7.74582 13.3864 7.9047 13.5983C8.06359 13.8234 10.2218 17.1335 13.5055 18.5503C14.2867 18.8946 14.8958 19.0932 15.3725 19.2388C16.1537 19.4904 16.8687 19.4507 17.438 19.3712C18.0736 19.2785 19.3844 18.5768 19.6492 17.8088C19.9273 17.0409 19.9273 16.3921 19.8346 16.2464C19.7419 16.1008 19.5433 16.0346 19.2123 15.8757Z" fill="#EFEFEF"/>
</svg>
